<svg width="491" height="491" viewBox="0 0 491 491" fill="none" xmlns="http://www.w3.org/2000/svg">
<path fill-rule="evenodd" clip-rule="evenodd" d="M0 245.333C0 109.839 109.839 0 245.333 0C380.764 0.153015 490.514 109.903 490.666 245.333C490.666 380.827 380.827 490.666 245.333 490.666C109.839 490.666 0 380.827 0 245.333ZM221.717 104.533C240.856 86.244 270.994 86.244 290.133 104.533L408.384 222.635C420.876 235.131 420.876 255.387 408.384 267.883L290.133 386.134C271.944 402.072 244.78 402.131 226.521 386.273C206.346 368.75 204.195 338.191 221.717 318.016L240.917 298.816H117.333C87.878 298.816 64 274.938 64 245.483C64 216.027 87.878 192.149 117.333 192.149H240.917L221.717 172.949L221.696 172.928C202.815 154.036 202.824 123.414 221.717 104.533Z" fill="#222222"/>
</svg>
