<svg version="1.1"
  xmlns="http://www.w3.org/2000/svg"
  xmlns:xlink="http://www.w3.org/1999/xlink">
  <defs>
    <symbol id="icon-dropdown" viewBox="0 0 16 12">
      <path d="M15.47,2.5l-.63-.7a.53.53,0,0,0-.8,0L8.22,8.32a.3.3,0,0,1-.44,0L2,1.8a.55.55,0,0,0-.81,0l-.61.7a.64.64,0,0,0,0,.86l6.75,7.55a.93.93,0,0,0,1.42,0l6.76-7.55A.67.67,0,0,0,15.47,2.5Z"/>
    </symbol>
    <symbol id="icon-expand" viewBox="0 0 26 25">
      <path d="M12.14,14.59l-4.7,4.7h4.23l0,1.75H4.46V13.85H6.21v4.21l4.7-4.7ZM14.35,4l0,1.75h4.23l-4.7,4.7,1.23,1.23,4.7-4.7v4.21h1.75V4Z"/>
    </symbol>
    <symbol id="icon-like" viewBox="0 0 13 13">
      <path d="M0,13H2.6V5.2H0ZM13,7.38l-1.13,4.25A1.76,1.76,0,0,1,10.09,13H3.9V5.21L5,1.19A1.39,1.39,0,0,1,6.4,0,1.4,1.4,0,0,1,7.8,1.4V5.2h3.42A1.78,1.78,0,0,1,13,7.38Z"/>
    </symbol>
    <symbol id="icon-out" viewBox="0 0 10 10">
      <polygon points="2.85 0 2.82 1.67 7.18 1.67 0 8.83 1.17 10 8.33 2.82 8.33 7.12 10 7.12 10 0 2.85 0"/>
    </symbol>
    <symbol id="icon-facebook" viewBox="0 0 11 20">
      <path d="M7.08,20V10.88H10.2l.47-3.56H7.08V5.05c0-1,.29-1.73,1.8-1.73h1.91V.14A27,27,0,0,0,8,0,4.32,4.32,0,0,0,3.34,4.7V7.32H.21v3.56H3.34V20Z" />
    </symbol>
    <symbol id="icon-instagram" viewBox="0 0 20 20">
      <path d="M14.48,0h-9A5.53,5.53,0,0,0,0,5.52v9A5.53,5.53,0,0,0,5.52,20h9A5.53,5.53,0,0,0,20,14.48v-9A5.53,5.53,0,0,0,14.48,0Zm0,1.77a3.75,3.75,0,0,1,3.75,3.75v9a3.75,3.75,0,0,1-3.75,3.75h-9a3.75,3.75,0,0,1-3.75-3.75v-9A3.75,3.75,0,0,1,5.52,1.77ZM10,4.76A5.24,5.24,0,1,0,15.24,10,5.25,5.25,0,0,0,10,4.76Zm0,1.81A3.43,3.43,0,1,1,6.57,10,3.44,3.44,0,0,1,10,6.57Zm5.71-3.71a1.43,1.43,0,0,0-1.42,1.43,1.43,1.43,0,0,0,2.85,0,1.43,1.43,0,0,0-1.43-1.43Z" />
    </symbol>
    <symbol id="icon-twitter" viewBox="0 0 20 20">
      <path d="M20,3.92a8.18,8.18,0,0,1-2.36.65A4.13,4.13,0,0,0,19.45,2.3a8.42,8.42,0,0,1-2.61,1,4.1,4.1,0,0,0-7.1,2.8A4.17,4.17,0,0,0,9.85,7,11.67,11.67,0,0,1,1.39,2.75,4.13,4.13,0,0,0,2.66,8.23,4.21,4.21,0,0,1,.8,7.71v0a4.12,4.12,0,0,0,3.3,4A4.34,4.34,0,0,1,3,11.93a3.94,3.94,0,0,1-.77-.08A4.1,4.1,0,0,0,6.07,14.7,8.22,8.22,0,0,1,1,16.46a7.93,7.93,0,0,1-1-.06,11.57,11.57,0,0,0,6.29,1.85A11.59,11.59,0,0,0,18,6.57V6A8.27,8.27,0,0,0,20,3.92Z" />
    </symbol>
    <symbol id="icon-arrow-right" viewBox="0 0 14 14">
      <polygon points="6.98 0 5.82 1.12 10.91 6.2 0 6.2 0 7.8 10.91 7.8 5.92 12.78 5.83 12.86 6.97 14 13.91 7.09 14 7 6.98 0"/>
    </symbol>
    <symbol id="icon-arrow-left" viewBox="0 0 14 14">
      <use transform="rotate(180,7,7)" height="14" xlink:href="#icon-arrow-right" />
    </symbol>
    <symbol id="icon-dropdown-filled" viewBox="0 0 9 5">
      <path d="M0 0h9L4.341 5" />
    </symbol>
    <!-- deprecated -->
    <symbol id="icon-cart" viewBox="0 0 17 16">
      <path d="M5.89,13.17a1.42,1.42,0,1,1-1.47,1.42A1.44,1.44,0,0,1,5.89,13.17Zm6.25-.08a1.42,1.42,0,1,1-1.47,1.42A1.45,1.45,0,0,1,12.14,13.09ZM3.44,0a1,1,0,0,1,1,.85l.17,1.56a.49.49,0,0,0,.49.42H16a.94.94,0,0,1,.92,1.25l-2.76,7.55a1,1,0,0,1-.92.63H4.54a1,1,0,0,1-1-.85l-1-9.1a.49.49,0,0,0-.49-.42H.49A.49.49,0,0,1,0,1.41V.47A.48.48,0,0,1,.49,0ZM5.87,10.37h6.34a.49.49,0,0,0,.47-.31L14.4,5.34a.48.48,0,0,0-.46-.63H5.37a.49.49,0,0,0-.49.52L5.38,10a.49.49,0,0,0,.49.42Z" />
    </symbol>
    <symbol id="icon-cart-with-circle" viewBox="0 0 40 40">
      <path d="M19.79,25.54H15.3a5.94,5.94,0,0,1-.73,0,.93.93,0,0,1-.85-.81c-.1-.68-.17-1.39-.24-2.07v-.06l-.27-2.72L13,18.21l-.15-1.47c-.06-.57-.12-1.14-.17-1.71s-.09-.88-.13-1.32l-.15-1.48a2.44,2.44,0,0,0-.06-.31l0-.05c-.15-.58-.38-.77-.94-.78H9.59c-.55,0-.65-.11-.66-.68v-.17c0-.24,0-.49,0-.74S9.08,9,9.39,9h2c.63,0,1.26,0,1.89,0a1,1,0,0,1,1,.8,3.64,3.64,0,0,1,.09.59v.08c0,.21,0,.41.06.62s.06.63.1,1a.94.94,0,0,0,.9.88H29.88l.27,0a1,1,0,0,1,.74.47,1.22,1.22,0,0,1,.07,1c-.21.66-.45,1.32-.68,2l-.33.93-2.54,7.26c-.26.76-.53,1-1.31,1H19.79ZM16,15a1.08,1.08,0,0,0-.82.35,1.2,1.2,0,0,0-.25.88c.12,1.15.23,2.3.35,3.45l.24,2.4a3,3,0,0,0,.07.45l0,.15a.87.87,0,0,0,.85.76l.39,0H24.6c.85,0,1-.14,1.34-1l1.11-3.13.38-1.1c.22-.61.44-1.23.64-1.86a1.13,1.13,0,0,0-.06-1,1.07,1.07,0,0,0-.9-.4H18.45c-1,0-1.73,0-2.44,0Zm8.79,15.63a1.69,1.69,0,0,1,.11-3.37A1.75,1.75,0,0,1,26.55,29a1.7,1.7,0,0,1-1.73,1.69Zm-8.26.12a1.75,1.75,0,0,1-1.26-.58,1.57,1.57,0,0,1-.4-1.14v0a1.46,1.46,0,0,1,.38-1,1.77,1.77,0,0,1,1.3-.59h0a1.62,1.62,0,0,1,1.15.52,1.7,1.7,0,0,1-1.2,2.86Z" />
      <path d="M20,40A20,20,0,1,1,40,20,20,20,0,0,1,20,40ZM20,2A18,18,0,1,0,38,20,18,18,0,0,0,20,2Z" />
    </symbol>
    <symbol id="icon-help" viewBox="0 0 18 18">
      <path d="M9,0a9,9,0,1,0,9,9A9,9,0,0,0,9,0ZM9,16.2A7.2,7.2,0,1,1,16.2,9,7.22,7.22,0,0,1,9,16.2Z" />
      <path d="M9,4.5A2.65,2.65,0,0,0,6.3,7.2H8.1A.85.85,0,0,1,9,6.3a.85.85,0,0,1,.9.9.82.82,0,0,1-.36.72A3.26,3.26,0,0,0,8.1,10.53v.27H9.9v-.27a1.42,1.42,0,0,1,.72-1.17A2.68,2.68,0,0,0,11.7,7.2,2.65,2.65,0,0,0,9,4.5Zm-.9,7.2H9.9v1.8H8.1Z" />
    </symbol>
    <!-- deprecated -->
    <symbol id="icon-mobile-menu" viewBox="0 0 16 16">
      <path d="M15.54,12a.47.47,0,0,1,.46.49v1a.47.47,0,0,1-.46.49H.46A.47.47,0,0,1,0,13.51v-1A.47.47,0,0,1,.46,12Zm0-5a.48.48,0,0,1,.46.5v1a.48.48,0,0,1-.46.5H.46A.48.48,0,0,1,0,8.49v-1A.48.48,0,0,1,.46,7Zm0-5a.47.47,0,0,1,.46.49v1a.47.47,0,0,1-.46.49H.46A.47.47,0,0,1,0,3.48v-1A.47.47,0,0,1,.46,2Z" />
    </symbol>
    <!-- TODO: reuse: icon-x, deprecated -->
    <symbol id="icon-mobile-menu-close" viewBox="0 0 16 16">
      <path d="M13.39,1.33,8.46,6.27a.52.52,0,0,1-.73,0L2.61,1.15a.52.52,0,0,0-.73,0l-.73.73a.52.52,0,0,0,0,.73L6.27,7.73a.52.52,0,0,1,0,.73L1.33,13.39a.52.52,0,0,0,0,.73l.73.73a.53.53,0,0,0,.74,0L7.73,9.92a.52.52,0,0,1,.73,0l4.74,4.75a.53.53,0,0,0,.74,0l.73-.73a.53.53,0,0,0,0-.74L9.92,8.46a.52.52,0,0,1,0-.73L14.85,2.8a.53.53,0,0,0,0-.74l-.73-.73a.52.52,0,0,0-.73,0" />
    </symbol>
    <symbol id="icon-menu-close" viewBox="0 0 38 38">
      <path d="M19,38A19,19,0,1,1,38,19,19,19,0,0,1,19,38ZM19,1A18,18,0,1,0,37,19,18,18,0,0,0,19,1Z"/>
      <polygon points="14.9 24.55 19.19 20.25 23.4 24.47 24.75 23.12 20.53 18.91 24.8 14.65 23.3 13.15 19.04 17.41 14.85 13.22 13.5 14.57 17.69 18.76 13.4 23.05 14.9 24.55"/>
    </symbol>
    <symbol id="icon-mobile-menu-close-squeezed" viewBox="0 0 15.8 14">
      <polygon points="15.8 0.77 15.12 0 7.9 6.32 0.68 0 0 0.77 7.12 7 0 13.23 0.68 14 7.9 7.68 15.12 14 15.8 13.23 8.68 7 15.8 0.77"/>
    </symbol>
    <!-- deprecated -->
    <symbol id="icon-profile" viewBox="0 0 16 16">
      <path d="M8,9.6a6.08,6.08,0,0,1,6.23,4.8H1.77A6.08,6.08,0,0,1,8,9.6M4.8,4.8A3.2,3.2,0,1,1,8,8,3.21,3.21,0,0,1,4.8,4.8M11,8.54a4.8,4.8,0,1,0-6,0A7.7,7.7,0,0,0,0,16H16a7.7,7.7,0,0,0-5-7.46" />
    </symbol>
    <symbol id="icon-profile-with-circle" viewBox="0 0 40 40">
      <path d="M19.71,22A7.44,7.44,0,0,1,27.27,28H12.15A7.45,7.45,0,0,1,19.71,22m-3.88-6.07a3.89,3.89,0,1,1,3.88,4.05,4,4,0,0,1-3.88-4.05m7.53,4.73a6.15,6.15,0,0,0,2.18-4.73,6,6,0,0,0-5.83-6.07,6,6,0,0,0-5.82,6.07,6.17,6.17,0,0,0,2.17,4.73A9.73,9.73,0,0,0,10,30.05H29.42a9.71,9.71,0,0,0-6.06-9.43" />
      <path d="M20,40A20,20,0,1,1,40,20,20,20,0,0,1,20,40ZM20,2A18,18,0,1,0,38,20,18,18,0,0,0,20,2Z" />
    </symbol>
    <symbol id="icon-check" viewBox="0 0 17 13">
      <polygon points="15.27 0.65 6.41 9.44 2.03 5.04 0.65 6.51 6.41 12.34 16.71 2.09 15.27 0.65" />
    </symbol>
    <symbol id="icon-star" viewBox="0 0 12 12">
      <path d="M6.38.29,7.52,4a.42.42,0,0,0,.38.31h3.7a.41.41,0,0,1,.23.74l-3,2.26a.44.44,0,0,0-.15.47l1.14,3.68a.4.4,0,0,1-.61.47l-3-2.28a.41.41,0,0,0-.48,0l-3,2.28a.4.4,0,0,1-.61-.47L3.3,7.76a.42.42,0,0,0-.15-.46L.17,5A.41.41,0,0,1,.4,4.3H4.1A.42.42,0,0,0,4.48,4L5.62.29a.39.39,0,0,1,.76,0"/>
    </symbol>
    <symbol id="icon-x" viewBox="0 0 14 14">
      <path d="M12.39.33,7.46,5.26a.5.5,0,0,1-.73,0L1.61.15a.52.52,0,0,0-.73,0L.15.88a.52.52,0,0,0,0,.73L5.26,6.73a.5.5,0,0,1,0,.73L.33,12.39a.52.52,0,0,0,0,.73l.73.73a.52.52,0,0,0,.73,0L6.73,8.92a.52.52,0,0,1,.73,0l4.74,4.75a.53.53,0,0,0,.74,0l.73-.73a.53.53,0,0,0,0-.74L8.92,7.46a.52.52,0,0,1,0-.73l4.93-4.94a.52.52,0,0,0,0-.73L13.12.33a.52.52,0,0,0-.73,0"/>
    </symbol>
    <symbol id="icon-trash-bin" viewBox="0 0 11 15">
      <path d="M.15,5.71l1.41,8.58a.85.85,0,0,0,.83.71H8.61a.85.85,0,0,0,.83-.71l1.41-8.58a.86.86,0,0,0-.83-1H1a.86.86,0,0,0-.83,1Zm8.39.72a.43.43,0,0,1,.41.5l-1,6a.44.44,0,0,1-.42.36H3.45A.44.44,0,0,1,3,12.93l-1-6a.43.43,0,0,1,.41-.5ZM5.8,0a.42.42,0,0,1,.43.41h0v1a.41.41,0,0,0,.43.4h3.77a.42.42,0,0,1,.43.41h0V3a.42.42,0,0,1-.43.41H.57A.42.42,0,0,1,.14,3h0V2.21A.42.42,0,0,1,.57,1.8H4.09a.42.42,0,0,0,.43-.4h0v-1A.41.41,0,0,1,4.94,0H5.8Z"/>
    </symbol>
    <symbol id="icon-plus-mini" viewBox="0 0 8 8">
      <polygon points="8 3 8 5 5 5 5 8 3 8 3 5 0 5 0 3 3 3 3 0 5 0 5 3 8 3" />
    </symbol>
    <symbol id="icon-minus-mini" viewBox="0 0 8 2">
      <polygon points="8 0 8 2 0 2 0 0 8 0" />
    </symbol>
    <symbol id="icon-phone" viewBox="0 0 15 15">
      <path d="M14.73,13c-.46,1.4-2.28,2.1-3.57,2A11.34,11.34,0,0,1,6,12.85,17.08,17.08,0,0,1,.66,6.49,5.37,5.37,0,0,1,.88,1,2.15,2.15,0,0,1,2.57,0c1,0,1.17.54,1.53,1.46.26.68.61,1.38.81,2.09C5.27,4.88,4,4.93,3.83,6c-.1.69.73,1.6,1.1,2.09a9.92,9.92,0,0,0,2.61,2.4c.57.36,1.49,1,2.14.65,1-.55.91-2.24,2.31-1.67a22.59,22.59,0,0,1,2.13,1.1c1.07.58,1,1.17.61,2.42-.31.92.31-.93,0,0"/>
    </symbol>
    <symbol id="icon-chat" viewBox="0 0 16 16">
      <path d="M10.54,1.51A6.11,6.11,0,0,0,.61,4.65c-.5,1.87,0,2.74,0,4.14A16.45,16.45,0,0,1,0,12.32a.43.43,0,0,0,.51.43A8.07,8.07,0,0,1,5,12.49c6.38,1.73,10.47-6.68,5.55-11m5,14.49-.13,0c-5-1.26-4.71.16-7.51-.59a6.52,6.52,0,0,1-2.29-1.16,7.83,7.83,0,0,0,8.59-9,6,6,0,0,1,1.57,2.9c.68,3.15-1,2.62.2,7.4a.43.43,0,0,1-.43.51"/>
    </symbol>
    <symbol id="icon-quote" viewBox="0 0 33 26">
      <path d="M0,13V26H13.59V13H5.82a7.61,7.61,0,0,1,7.77-7.43V0C6.08,0,0,5.82,0,13ZM33,5.57V0C25.5,0,19.41,5.82,19.41,13V26H33V13H25.24A7.6,7.6,0,0,1,33,5.57Z"/>
    </symbol>
  </defs>
</svg>
